PathFileType  4	(X/Y/Z) C:\Users\antoi\Documents\MyRepositories\mobilecap\ResultsAnalysis
DataRate	CameraRate	NumFrames	NumMarkers	Units	OrigDataRate	OrigDataStartFrame	OrigNumFrames
100.0	100.0	5	51	mm	100.0	68	134
Frame#	Time	r_knee			r_shank_antsup			r_ankle			r_calc			r_5meta			r_toe			L_knee			L_shank_antsup			L_ankle			L_calc			L_5meta			L_toe			r_sh2			r_sh3			r_sh4			L_sh2			L_sh3			r_thigh1			r_thigh2			r_thigh3			r_thigh4			r_thigh5			L_thigh1			L_thigh2			L_thigh3			L_thigh4			r.ASIS			r.PSIS			L.ASIS			L.PSIS			C7			R_Shoulder			L_Shoulder			R_Sternum			L_Sternum			R_humerus			R_elbow_med			R_elbow_lat			R_forearm			R_wrist_radius			R_wrist_ulna			L_humerus			L_elbow_med			L_elbow_lat			L_forearm			L_wrist_radius			L_wrist_ulna			R_HJC			L_HJC			R_HJC_reg			L_HJC_reg			
		X1	Y1	Z1	X2	Y2	Z2	X3	Y3	Z3	X4	Y4	Z4	X5	Y5	Z5	X6	Y6	Z6	X7	Y7	Z7	X8	Y8	Z8	X9	Y9	Z9	X10	Y10	Z10	X11	Y11	Z11	X12	Y12	Z12	X13	Y13	Z13	X14	Y14	Z14	X15	Y15	Z15	X16	Y16	Z16	X17	Y17	Z17	X18	Y18	Z18	X19	Y19	Z19	X20	Y20	Z20	X21	Y21	Z21	X22	Y22	Z22	X23	Y23	Z23	X24	Y24	Z24	X25	Y25	Z25	X26	Y26	Z26	X27	Y27	Z27	X28	Y28	Z28	X29	Y29	Z29	X30	Y30	Z30	X31	Y31	Z31	X32	Y32	Z32	X33	Y33	Z33	X34	Y34	Z34	X35	Y35	Z35	X36	Y36	Z36	X37	Y37	Z37	X38	Y38	Z38	X39	Y39	Z39	X40	Y40	Z40	X41	Y41	Z41	X42	Y42	Z42	X43	Y43	Z43	X44	Y44	Z44	X45	Y45	Z45	X46	Y46	Z46	X47	Y47	Z47	X48	Y48	Z48	X49	Y49	Z49	X50	Y50	Z50	X51	Y51	Z51	

68	0.67000000	717.85825	459.82260	-20.40790	698.61213	380.47136	-35.02907	400.03549	218.57478	-59.41201	346.77861	259.18151	-105.00677	397.57455	97.81338	-28.12193	454.07268	70.75701	-74.31318	848.12110	492.32680	-327.57237	889.41571	399.28190	-331.17668	850.17652	94.23755	-281.84671	791.06887	62.85961	-224.52734	949.05639	42.32400	-333.43079	1000.13915	67.61089	-283.83965	596.74407	326.22699	-17.86298	655.15910	448.30053	-12.94706	559.01672	390.30446	-20.65323	800.78782	404.57331	-325.45358	806.48181	283.01930	-323.31369	797.02869	772.10411	-12.16423	791.91021	659.16775	-12.10819	681.31582	659.45808	-2.38244	684.66163	775.97593	4.36077	734.28804	640.44958	13.62346	799.28387	756.77540	-383.48593	848.26471	629.54067	-358.83585	695.85751	719.88604	-342.35536	750.86204	591.06152	-325.29196	816.44710	941.97996	-56.01074	626.05576	986.08145	-132.98109	816.83156	941.51038	-306.71591	616.33995	995.84049	-232.94051	613.81615	1394.55047	-194.66824	736.64152	1371.20844	-27.67475	671.17893	1359.43072	-378.21842	756.17792	1374.35391	-190.21948	757.17330	1374.17842	-233.19936	771.84950	1238.39178	30.07855	748.14482	1018.28245	-9.23588	773.49207	1037.48330	55.50721	892.92873	960.22391	37.20596	985.37753	863.53393	11.98359	968.81121	842.63708	37.40665	653.60353	1243.15548	-431.32754	585.00087	1029.60730	-328.20583	566.93971	1048.08416	-403.77689	579.93365	938.75940	-433.35343	534.03428	784.47796	-445.23373	505.84173	800.37374	-453.96903	736.08938	864.74556	-82.04127	734.86523	870.33343	-288.41716	751.58265	859.71721	-92.16964	735.65145	875.72218	-256.08339	
69	0.68000000	741.79577	459.69558	-19.18283	722.27787	381.20553	-34.03178	420.01939	226.92721	-60.27651	368.80900	269.67115	-106.97083	412.65864	106.61647	-28.29057	468.85382	77.08459	-73.37145	854.32964	492.36322	-329.23866	894.34172	398.29308	-332.88262	850.51083	94.27003	-281.85149	791.12036	62.94550	-224.53688	949.07006	42.15551	-333.70187	1000.27845	67.10897	-283.93462	619.01135	329.45944	-17.50391	680.48137	449.97147	-11.96602	582.95493	394.39333	-20.87563	805.76641	405.02674	-327.10753	809.77326	283.34595	-324.35799	810.17872	773.81277	-12.32014	808.76677	660.80100	-10.54684	698.10364	658.24985	-2.68684	697.49425	774.33757	2.44535	751.15385	640.42200	13.95754	808.69095	757.33202	-385.78139	855.93346	629.37048	-361.16286	704.63232	721.73477	-344.60158	758.07747	592.37609	-327.35567	826.99409	941.34894	-58.05110	636.88181	986.04515	-134.14352	827.85491	942.51886	-308.91325	627.35567	996.74341	-234.12053	625.60438	1395.41087	-197.67194	746.88396	1372.40794	-29.39498	685.29080	1359.86317	-380.76595	767.92125	1375.16257	-191.69529	769.35570	1374.89047	-234.55547	780.83663	1239.47108	28.97062	755.32743	1019.43460	-9.70387	780.43066	1038.65835	55.11419	898.87378	959.60980	38.09999	990.04862	861.41995	14.11553	973.07487	840.90516	39.41696	670.22337	1242.84776	-434.28491	602.24152	1028.43103	-332.86173	586.01120	1046.42426	-408.81821	602.19781	937.21519	-437.86041	560.60451	781.94990	-450.85270	531.61804	796.97756	-460.10383	746.86569	864.28463	-84.46453	745.52847	871.42608	-290.79049	762.21663	859.01298	-95.13057	746.59965	876.55113	-259.03064	
70	0.69000000	765.51253	460.47354	-18.20242	746.15214	382.71561	-33.39205	441.00341	234.64430	-61.58284	390.91631	278.40477	-109.34601	430.69054	115.08207	-28.43156	486.72252	83.84342	-72.54296	859.85218	492.31235	-330.56268	898.80879	397.39722	-334.23293	850.82116	94.30912	-281.81558	791.17637	63.04286	-224.52744	949.08539	41.99720	-333.87776	1000.42510	66.69338	-283.99913	641.65024	333.07058	-17.60919	705.71433	452.15444	-11.42506	607.08278	398.62376	-21.28602	810.30639	405.39319	-328.48481	812.80846	283.64442	-325.21409	822.94130	776.02001	-12.58399	825.13158	663.01843	-9.21825	714.51083	657.70528	-3.33683	709.99983	773.14908	0.38797	767.47580	640.99884	14.02304	817.56593	757.73345	-387.81188	862.98622	629.04473	-363.15764	712.91349	723.57512	-346.27831	764.66288	593.67573	-328.88578	837.35093	940.63033	-59.94384	647.49774	986.19433	-135.30988	838.68416	943.43008	-310.99018	638.18484	997.70031	-235.34944	637.25433	1396.33481	-200.56632	756.93069	1373.61781	-30.96687	699.37263	1360.30986	-383.19497	779.54170	1375.98991	-193.03767	781.43187	1375.61027	-235.77548	789.56403	1240.54003	27.99638	762.35824	1020.61157	-10.17162	787.18511	1039.83276	54.74819	904.60364	959.04464	39.06803	994.49077	859.37575	16.33683	977.12813	839.26306	41.52426	686.99002	1242.57040	-437.02875	619.63808	1027.17338	-337.62823	605.44609	1044.74786	-413.89698	624.97306	935.76903	-442.36109	587.95465	779.58444	-456.48030	557.96129	793.67078	-466.13467	757.30333	863.85566	-86.79717	755.94087	872.48490	-293.07082	772.47863	858.47798	-97.83091	757.21785	877.32957	-261.75539	
71	0.70000000	788.93750	462.19739	-17.49388	770.13878	384.94948	-33.12466	463.00939	241.46838	-63.25739	413.13853	285.31157	-111.93578	451.60604	122.79035	-28.59971	507.54262	90.52374	-72.02114	864.84298	492.22862	-331.54761	902.88252	396.63015	-335.21266	851.13502	94.36824	-281.73117	791.23271	63.15071	-224.50534	949.10484	41.86159	-333.97832	1000.57672	66.34030	-284.03207	664.61290	336.92426	-18.16483	730.66156	454.83745	-11.38009	631.23952	402.85741	-21.88692	814.46196	405.73821	-329.58014	815.61668	283.94908	-325.87894	835.37812	778.76102	-12.97411	841.07547	665.83918	-8.22166	730.61098	657.76567	-4.42557	722.26939	772.46123	-1.88084	783.33350	642.23303	13.80120	825.98649	758.04350	-389.54351	869.53112	628.63840	-364.78243	720.83300	725.45279	-347.45901	770.75234	594.99779	-329.88139	847.61337	940.05220	-61.67027	657.95458	986.65388	-136.56505	849.34132	944.25669	-312.92412	648.85453	998.78284	-236.70938	648.76272	1397.38380	-203.32913	766.78568	1374.86515	-32.37896	713.37556	1360.81105	-385.49909	791.02358	1376.89739	-194.24388	793.38196	1376.39533	-236.86640	798.01178	1241.61541	27.15843	769.24429	1021.82874	-10.66979	793.75337	1041.01569	54.38243	910.12541	958.53640	40.10792	998.69461	857.41547	18.64701	980.94703	837.71348	43.73104	703.87792	1242.36814	-439.54153	637.22079	1025.84755	-342.46366	625.24151	1043.10559	-418.98149	648.22639	934.49270	-446.80497	615.99529	777.47600	-462.01594	584.98768	790.56206	-472.07604	767.46361	863.65782	-88.97801	766.16657	873.52526	-295.20563	782.47743	858.24703	-100.19535	767.57470	878.10642	-264.18716	
72	0.71000000	812.01211	464.82373	-17.09734	794.14110	387.82224	-33.21889	486.00861	247.14856	-65.18211	435.61193	290.38943	-114.53266	475.07996	129.34646	-28.88856	530.95564	96.63323	-71.96780	869.44805	492.16622	-332.21942	906.59266	396.01202	-335.85204	851.46124	94.46400	-281.60690	791.28380	63.26491	-224.48049	949.13029	41.75773	-334.02807	1000.72306	66.03768	-284.04038	687.87885	340.82684	-19.09719	755.16119	457.95756	-11.80949	655.28527	406.92721	-22.67794	818.25280	406.12770	-330.38529	818.18883	284.29324	-326.33993	847.56460	782.01782	-13.46074	856.68280	669.24877	-7.60065	746.50115	658.28585	-6.00983	734.40214	772.27329	-4.38260	798.84171	644.11126	13.28369	834.03387	758.31747	-390.97208	875.68046	628.21755	-366.03920	728.54510	727.40987	-348.26476	776.51681	596.37075	-330.40380	857.87068	939.86828	-63.23076	668.30396	987.52619	-137.96529	859.84001	945.03125	-314.70190	659.39448	1000.05389	-238.24181	660.13159	1398.61683	-205.94078	776.46728	1376.18448	-33.63565	727.24331	1361.42072	-387.66588	802.36245	1377.93631	-195.31187	805.18030	1377.29763	-237.83693	806.18373	1242.73143	26.44628	776.00044	1023.11550	-11.22686	800.13968	1042.23762	53.99013	915.44712	958.10381	41.21829	1002.64841	855.55640	21.04912	984.49857	836.26206	46.03341	720.84833	1242.30648	-441.81554	655.03623	1024.49184	-347.31826	645.38243	1041.56812	-424.02813	671.91939	933.47639	-451.13611	644.64413	775.73171	-467.37469	612.81010	787.77465	-477.95207	777.43558	863.89280	-90.94086	776.26932	874.57199	-297.13783	792.33942	858.44601	-102.18455	777.75879	878.94535	-266.28211	
